<svg width="70" height="70" viewBox="0 0 70 70" fill="none" xmlns="http://www.w3.org/2000/svg">
<path d="M64.4 9.80001V60.2C64.4 61.3139 63.9575 62.3822 63.1698 63.1698C62.3822 63.9575 61.3139 64.4 60.2 64.4H57.4C56.2861 64.4 55.2178 63.9575 54.4301 63.1698C53.6425 62.3822 53.2 61.3139 53.2 60.2V9.80001C53.2 8.6861 53.6425 7.61781 54.4301 6.83016C55.2178 6.0425 56.2861 5.60001 57.4 5.60001H60.2C61.3139 5.60001 62.3822 6.0425 63.1698 6.83016C63.9575 7.61781 64.4 8.6861 64.4 9.80001ZM45.22 30.464L14.672 7.00001C13.8557 6.38499 12.8867 6.00508 11.87 5.90143C10.8532 5.79778 9.82753 5.97435 8.90397 6.41201C7.94327 6.87598 7.1351 7.60474 6.57457 8.5125C6.01404 9.42026 5.72448 10.4692 5.73997 11.536V58.464C5.73343 59.504 6.01664 60.5253 6.55785 61.4134C7.09907 62.3015 7.87691 63.0213 8.80421 63.4923C9.73151 63.9632 10.7716 64.1666 11.808 64.0796C12.8444 63.9927 13.8361 63.6188 14.672 63L45.22 39.564C45.917 39.0279 46.4816 38.3388 46.8701 37.5499C47.2586 36.761 47.4607 35.8934 47.4607 35.014C47.4607 34.1346 47.2586 33.267 46.8701 32.4781C46.4816 31.6892 45.917 31.0001 45.22 30.464Z" fill="#B2E899"/>
</svg>
