<svg width="65" height="75" viewBox="0 0 65 75" fill="none" xmlns="http://www.w3.org/2000/svg">
<path d="M59.3853 27.7774L13.3932 1.20538C12.0785 0.427565 10.5813 0.0116794 9.05378 0C6.65257 0 4.3497 0.953877 2.65179 2.65179C0.953878 4.3497 0 6.65257 0 9.05378V66.0819C0.000305383 67.6753 0.42746 69.2396 1.23705 70.6121C2.04664 71.9845 3.20911 73.1151 4.60359 73.8861C5.99807 74.6572 7.57364 75.0406 9.16649 74.9966C10.7593 74.9525 12.3113 74.4826 13.661 73.6356L59.7067 44.5457C61.1384 43.6496 62.3136 42.398 63.1177 40.9127C63.9219 39.4274 64.3275 37.7592 64.2951 36.0705C64.2628 34.3818 63.7935 32.7303 62.933 31.277C62.0726 29.8236 60.8503 28.6179 59.3853 27.7774Z" fill="#B2E899"/>
</svg>
