<svg width="70" height="70" viewBox="0 0 70 70" fill="none" xmlns="http://www.w3.org/2000/svg">
<path d="M5.60004 60.2L5.60004 9.8C5.60004 8.68609 6.04254 7.61781 6.83019 6.83015C7.61784 6.0425 8.68613 5.6 9.80004 5.6H12.6C13.7139 5.6 14.7822 6.0425 15.5699 6.83015C16.3575 7.61781 16.8 8.68609 16.8 9.8L16.8 60.2C16.8 61.3139 16.3575 62.3822 15.5699 63.1698C14.7822 63.9575 13.7139 64.4 12.6 64.4H9.80004C8.68613 64.4 7.61784 63.9575 6.83019 63.1698C6.04254 62.3822 5.60004 61.3139 5.60004 60.2ZM24.78 39.536L55.328 63C56.1443 63.615 57.1133 63.9949 58.13 64.0986C59.1468 64.2022 60.1725 64.0256 61.096 63.588C62.0567 63.124 62.8649 62.3953 63.4254 61.4875C63.986 60.5797 64.2755 59.5308 64.26 58.464V11.536C64.2666 10.496 63.9834 9.47472 63.4421 8.58661C62.9009 7.6985 62.1231 6.97866 61.1958 6.50774C60.2685 6.03682 59.2284 5.83344 58.192 5.92039C57.1556 6.00733 56.1639 6.38116 55.328 7L24.78 30.436C24.083 30.9721 23.5184 31.6612 23.1299 32.4501C22.7414 33.239 22.5393 34.1066 22.5393 34.986C22.5393 35.8654 22.7414 36.733 23.1299 37.5219C23.5184 38.3108 24.083 38.9999 24.78 39.536Z" fill="#B2E899"/>
</svg>
